<svg xmlns="http://www.w3.org/2000/svg" xmlns:xlink="http://www.w3.org/1999/xlink" fill="none" version="1.1" width="10.138875007629395" height="10.135725021362305" viewBox="0 0 10.138875007629395 10.135725021362305"><g style="opacity:0.699999988079071;mix-blend-mode:passthrough"><path d="M0.230216,9.90553C0.333917,10.0092,0.454211,10.0777,0.591096,10.1109C0.73213,10.144,0.871089,10.144,1.00797,10.1109C1.14486,10.0777,1.26308,10.0113,1.36263,9.91175C1.36263,9.91175,5.07098,6.2034,5.07098,6.2034C5.07098,6.2034,8.77933,9.91175,8.77933,9.91175C8.87889,10.0113,8.9971,10.0777,9.13399,10.1109C9.27087,10.144,9.40776,10.144,9.54465,10.1109C9.68153,10.0777,9.80182,10.0092,9.90553,9.90553C10.0092,9.80182,10.0777,9.68153,10.1109,9.54465C10.144,9.40776,10.144,9.27087,10.1109,9.13399C10.0777,8.9971,10.0113,8.87889,9.91175,8.77933C9.91175,8.77933,6.20962,5.06476,6.20962,5.06476C6.20962,5.06476,9.91175,1.35641,9.91175,1.35641C10.0113,1.25686,10.0777,1.13864,10.1109,1.00175C10.1482,0.864867,10.1482,0.727981,10.1109,0.591096C10.0777,0.454211,10.0092,0.335991,9.90553,0.236438C9.80182,0.128589,9.68153,0.0580726,9.54465,0.0248883C9.40776,-0.00829609,9.27087,-0.00829609,9.13399,0.0248883C8.9971,0.0580726,8.87889,0.124441,8.77933,0.223994C8.77933,0.223994,5.07098,3.93234,5.07098,3.93234C5.07098,3.93234,1.36263,0.223994,1.36263,0.223994C1.26308,0.124441,1.14279,0.0580726,1.00175,0.0248883C0.864867,-0.00829609,0.725907,-0.00829609,0.584874,0.0248883C0.447989,0.0580726,0.329769,0.126515,0.230216,0.230216C0.126515,0.333917,0.0580726,0.454211,0.0248883,0.591096C-0.00414805,0.727981,-0.00414805,0.866941,0.0248883,1.00797C0.0580726,1.14486,0.124441,1.261,0.223994,1.35641C0.223994,1.35641,3.93234,5.06476,3.93234,5.06476C3.93234,5.06476,0.223994,8.77933,0.223994,8.77933C0.124441,8.87889,0.0580726,8.9971,0.0248883,9.13399C-0.00829609,9.27087,-0.00829609,9.40776,0.0248883,9.54465C0.0580726,9.68153,0.126515,9.80182,0.230216,9.90553C0.230216,9.90553,0.230216,9.90553,0.230216,9.90553Z" fill="#FFFFFF" fill-opacity="1"/></g></svg>