<svg xmlns="http://www.w3.org/2000/svg" xmlns:xlink="http://www.w3.org/1999/xlink" fill="none" version="1.1" width="16" height="16" viewBox="0 0 16 16"><g><path d="M0,6.63093Q0,5.31874,1.0696,4.55345L6.97355,0.329243Q7.43365,0,8,0Q8.56635,0,9.02647,0.329256L14.9304,4.55345Q16,5.31904,16,6.63074L16,13.4427Q16,14.502,15.2486,15.251Q14.4971,16,13.4345,16L2.56533,16Q1.50278,16,0.751395,15.251Q0,14.5019,0,13.4427L0,6.63093ZM1.91033,6.63093Q1.91033,6.29605,2.18341,6.10049L8,1.93879L13.8165,6.10042Q14.0897,6.2959,14.0897,6.63093L14.0897,13.4427Q14.0897,13.7131,13.8978,13.9044Q13.7058,14.0957,13.4345,14.0957L2.56533,14.0957Q2.29401,14.0957,2.10218,13.9044Q1.91033,13.7132,1.91033,13.4427L1.91033,6.63093Z" fill-rule="evenodd" fill="#FFFFFF" fill-opacity="1"/></g></svg>