<svg xmlns="http://www.w3.org/2000/svg" xmlns:xlink="http://www.w3.org/1999/xlink" fill="none" version="1.1" width="17.3000545501709" height="17.29999542236328" viewBox="0 0 17.3000545501709 17.29999542236328"><g><path d="M8.65003,17.3Q12.233,17.3,14.7665,14.7665Q17.3001,12.2328,17.3001,8.65Q17.3001,5.06726,14.7665,2.53352Q12.233,0,8.65003,0Q5.06701,0,2.53359,2.53352Q0,5.06721,0,8.65Q0,12.2328,2.53359,14.7665Q5.06701,17.3,8.65003,17.3ZM13.3259,3.97415Q15.2663,5.9144,15.2663,8.65Q15.2663,11.3856,13.3259,13.3258Q11.3856,15.2661,8.65003,15.2661Q5.91443,15.2661,3.97413,13.3258Q2.03379,11.3856,2.03379,8.65Q2.03379,5.9144,3.97412,3.97415Q5.91443,2.03394,8.65003,2.03394Q11.3856,2.03394,13.3259,3.97415ZM9.71048,3.58933Q9.27115,3.14999,8.64986,3.14999Q8.02858,3.14999,7.58924,3.58933Q7.1499,4.02867,7.1499,4.64999Q7.1499,5.27131,7.58924,5.71065Q8.02858,6.14999,8.64986,6.14999Q9.27115,6.14999,9.71048,5.71065Q10.1498,5.27131,10.1498,4.64999Q10.1498,4.02867,9.71048,3.58933ZM8.64941,13.65C8.09668,13.65,7.6499,13.3618,7.6499,13.0063L7.6499,7.29367C7.6499,6.93814,8.09668,6.64999,8.64941,6.64999C9.20215,6.64999,9.6499,6.93814,9.6499,7.29367L9.6499,13.0063C9.6499,13.3618,9.20215,13.65,8.64941,13.65Z" fill-rule="evenodd" fill="#FFFFFF" fill-opacity="1"/></g></svg>