<svg xmlns="http://www.w3.org/2000/svg" xmlns:xlink="http://www.w3.org/1999/xlink" fill="none" version="1.1" width="11.199951171875" height="12.138431549072266" viewBox="0 0 11.199951171875 12.138431549072266"><g style="mix-blend-mode:passthrough"><g style="mix-blend-mode:passthrough" transform="matrix(-1,-2.904281188875757e-7,2.904281188875757e-7,-1,21.199950997588658,1.200206020425501)"><path d="M20.5999755859375,1.2001014709472657L10.5999755859375,1.2001014709472657L10.5999755859375,0.0001014709472656472L20.5999755859375,0.0001014709472656472L20.5999755859375,1.2001014709472657ZM21.1999755859375,0.6001014709472656Q21.1999755859375,0.6591962709472656,21.1884755859375,0.7171554709472656Q21.176875585937502,0.7751154709472656,21.154275585937498,0.8297114709472656Q21.1316755859375,0.8843084709472656,21.0988755859375,0.9334434709472657Q21.0660755859375,0.9825794709472656,21.024275585937502,1.0243654709472656Q20.9824755859375,1.0661514709472657,20.9332755859375,1.0989834709472657Q20.8841755859375,1.1318144709472655,20.829575585937498,1.1544294709472656Q20.7749755859375,1.1770434709472655,20.7170755859375,1.1885724709472656Q20.6590755859375,1.2001014709472657,20.5999755859375,1.2001014709472657Q20.540885585937502,1.2001014709472657,20.4829255859375,1.1885724709472656Q20.4249655859375,1.1770434709472655,20.3703655859375,1.1544294709472656Q20.3157655859375,1.1318144709472655,20.2666355859375,1.0989834709472657Q20.2174955859375,1.0661514709472657,20.1757055859375,1.0243654709472656Q20.1339255859375,0.9825794709472656,20.1010955859375,0.9334434709472657Q20.0682555859375,0.8843084709472656,20.0456455859375,0.8297114709472656Q20.0230355859375,0.7751154709472656,20.0115055859375,0.7171554709472656Q19.9999755859375,0.6591962709472656,19.9999755859375,0.6001014709472656Q19.9999755859375,0.5410066709472656,20.0115055859375,0.48304747094726563Q20.0230355859375,0.4250874709472656,20.0456455859375,0.37049147094726564Q20.0682555859375,0.31589447094726564,20.1010955859375,0.2667594709472656Q20.1339255859375,0.21762347094726564,20.1757155859375,0.17583747094726565Q20.2174955859375,0.1340514709472656,20.2666355859375,0.10121947094726563Q20.3157655859375,0.06838847094726563,20.3703655859375,0.04577347094726558Q20.4249655859375,0.02315947094726567,20.4829255859375,0.011630470947265659Q20.540885585937502,0.0001014709472656472,20.5999755859375,0.0001014709472656472Q20.6590755859375,0.0001014709472656472,20.7170755859375,0.011630470947265659Q20.7749755859375,0.02315947094726567,20.829575585937498,0.04577347094726558Q20.8841755859375,0.06838847094726563,20.9332755859375,0.10121947094726563Q20.9824755859375,0.1340514709472656,21.024275585937502,0.17583747094726565Q21.0660755859375,0.21762347094726564,21.0988755859375,0.2667594709472656Q21.1316755859375,0.31589447094726564,21.154275585937498,0.37049147094726564Q21.176875585937502,0.4250874709472656,21.1884755859375,0.48304747094726563Q21.1999755859375,0.5410066709472656,21.1999755859375,0.6001014709472656ZM11.1999755859375,0.6001014709472656Q11.1999755859375,0.6591962709472656,11.1884465859375,0.7171554709472656Q11.1769175859375,0.7751154709472656,11.1543035859375,0.8297114709472656Q11.1316885859375,0.8843084709472656,11.0988575859375,0.9334434709472657Q11.0660255859375,0.9825794709472656,11.0242395859375,1.0243654709472656Q10.9824535859375,1.0661514709472657,10.9333175859375,1.0989834709472657Q10.8841825859375,1.1318144709472655,10.8295855859375,1.1544294709472656Q10.774989585937501,1.1770434709472655,10.7170295859375,1.1885724709472656Q10.6590703859375,1.2001014709472657,10.5999755859375,1.2001014709472657Q10.5408807859375,1.2001014709472657,10.4829215859375,1.1885724709472656Q10.424961585937499,1.1770434709472655,10.3703655859375,1.1544294709472656Q10.3157685859375,1.1318144709472655,10.2666335859375,1.0989834709472657Q10.2174975859375,1.0661514709472657,10.1757115859375,1.0243654709472656Q10.1339255859375,0.9825794709472656,10.1010935859375,0.9334434709472657Q10.0682625859375,0.8843084709472656,10.0456475859375,0.8297114709472656Q10.0230335859375,0.7751154709472656,10.0115045859375,0.7171554709472656Q9.9999755859375,0.6591962709472656,9.9999755859375,0.6001014709472656Q9.9999755859375,0.5410066709472656,10.0115045859375,0.48304747094726563Q10.0230335859375,0.4250874709472656,10.0456475859375,0.37049147094726564Q10.0682625859375,0.31589447094726564,10.1010935859375,0.2667594709472656Q10.1339255859375,0.21762347094726564,10.1757115859375,0.17583747094726565Q10.2174975859375,0.1340514709472656,10.2666335859375,0.10121947094726563Q10.3157685859375,0.06838847094726563,10.3703655859375,0.04577347094726558Q10.424961585937499,0.02315947094726567,10.4829215859375,0.011630470947265659Q10.5408807859375,0.0001014709472656472,10.5999755859375,0.0001014709472656472Q10.6590703859375,0.0001014709472656472,10.7170295859375,0.011630470947265659Q10.774989585937501,0.02315947094726567,10.8295855859375,0.04577347094726558Q10.8841825859375,0.06838847094726563,10.9333175859375,0.10121947094726563Q10.9824535859375,0.1340514709472656,11.0242395859375,0.17583747094726565Q11.0660255859375,0.21762347094726564,11.0988575859375,0.2667594709472656Q11.1316885859375,0.31589447094726564,11.1543035859375,0.37049147094726564Q11.1769175859375,0.4250874709472656,11.1884465859375,0.48304747094726563Q11.1999755859375,0.5410066709472656,11.1999755859375,0.6001014709472656Z" fill="#FFFFFF" fill-opacity="1"/></g><g style="mix-blend-mode:passthrough" transform="matrix(-1,-2.904281188875757e-7,2.904281188875757e-7,-1,21.199947820818394,23.0766708641755)"><path d="M20.5999755859375,12.138333892822265L10.5999755859375,12.138333892822265L10.5999755859375,10.938333892822266L20.5999755859375,10.938333892822266L20.5999755859375,12.138333892822265ZM21.1999755859375,11.538333892822266Q21.1999755859375,11.597428692822266,21.1884755859375,11.655387892822265Q21.176875585937502,11.713347892822267,21.154275585937498,11.767943892822265Q21.1316755859375,11.822540892822266,21.0988755859375,11.871675892822266Q21.0660755859375,11.920811892822266,21.024275585937502,11.962597892822266Q20.9824755859375,12.004383892822265,20.9332755859375,12.037215892822266Q20.8841755859375,12.070046892822266,20.829575585937498,12.092661892822266Q20.7749755859375,12.115275892822266,20.7170755859375,12.126804892822266Q20.6590755859375,12.138333892822265,20.5999755859375,12.138333892822265Q20.540885585937502,12.138333892822265,20.4829255859375,12.126804892822266Q20.4249655859375,12.115275892822266,20.3703655859375,12.092661892822266Q20.3157655859375,12.070046892822266,20.2666355859375,12.037215892822266Q20.2174955859375,12.004383892822265,20.1757055859375,11.962597892822266Q20.1339255859375,11.920811892822266,20.1010955859375,11.871675892822266Q20.0682555859375,11.822540892822266,20.0456455859375,11.767943892822265Q20.0230355859375,11.713347892822267,20.0115055859375,11.655387892822265Q19.9999755859375,11.597428692822266,19.9999755859375,11.538333892822266Q19.9999755859375,11.479239092822265,20.0115055859375,11.421279892822266Q20.0230355859375,11.363319892822265,20.0456455859375,11.308723892822266Q20.0682555859375,11.254126892822265,20.1010955859375,11.204991892822266Q20.1339255859375,11.155855892822265,20.1757155859375,11.114069892822265Q20.2174955859375,11.072283892822266,20.2666355859375,11.039451892822266Q20.3157655859375,11.006620892822266,20.3703655859375,10.984005892822266Q20.4249655859375,10.961391892822265,20.4829255859375,10.949862892822265Q20.540885585937502,10.938333892822266,20.5999755859375,10.938333892822266Q20.6590755859375,10.938333892822266,20.7170755859375,10.949862892822265Q20.7749755859375,10.961391892822265,20.829575585937498,10.984005892822266Q20.8841755859375,11.006620892822266,20.9332755859375,11.039451892822266Q20.9824755859375,11.072283892822266,21.024275585937502,11.114069892822265Q21.0660755859375,11.155855892822265,21.0988755859375,11.204991892822266Q21.1316755859375,11.254126892822265,21.154275585937498,11.308723892822266Q21.176875585937502,11.363319892822265,21.1884755859375,11.421279892822266Q21.1999755859375,11.479239092822265,21.1999755859375,11.538333892822266ZM11.1999755859375,11.538333892822266Q11.1999755859375,11.597428692822266,11.1884465859375,11.655387892822265Q11.1769175859375,11.713347892822267,11.1543035859375,11.767943892822265Q11.1316885859375,11.822540892822266,11.0988575859375,11.871675892822266Q11.0660255859375,11.920811892822266,11.0242395859375,11.962597892822266Q10.9824535859375,12.004383892822265,10.9333175859375,12.037215892822266Q10.8841825859375,12.070046892822266,10.8295855859375,12.092661892822266Q10.774989585937501,12.115275892822266,10.7170295859375,12.126804892822266Q10.6590703859375,12.138333892822265,10.5999755859375,12.138333892822265Q10.5408807859375,12.138333892822265,10.4829215859375,12.126804892822266Q10.424961585937499,12.115275892822266,10.3703655859375,12.092661892822266Q10.3157685859375,12.070046892822266,10.2666335859375,12.037215892822266Q10.2174975859375,12.004383892822265,10.1757115859375,11.962597892822266Q10.1339255859375,11.920811892822266,10.1010935859375,11.871675892822266Q10.0682625859375,11.822540892822266,10.0456475859375,11.767943892822265Q10.0230335859375,11.713347892822267,10.0115045859375,11.655387892822265Q9.9999755859375,11.597428692822266,9.9999755859375,11.538333892822266Q9.9999755859375,11.479239092822265,10.0115045859375,11.421279892822266Q10.0230335859375,11.363319892822265,10.0456475859375,11.308723892822266Q10.0682625859375,11.254126892822265,10.1010935859375,11.204991892822266Q10.1339255859375,11.155855892822265,10.1757115859375,11.114069892822265Q10.2174975859375,11.072283892822266,10.2666335859375,11.039451892822266Q10.3157685859375,11.006620892822266,10.3703655859375,10.984005892822266Q10.424961585937499,10.961391892822265,10.4829215859375,10.949862892822265Q10.5408807859375,10.938333892822266,10.5999755859375,10.938333892822266Q10.6590703859375,10.938333892822266,10.7170295859375,10.949862892822265Q10.774989585937501,10.961391892822265,10.8295855859375,10.984005892822266Q10.8841825859375,11.006620892822266,10.9333175859375,11.039451892822266Q10.9824535859375,11.072283892822266,11.0242395859375,11.114069892822265Q11.0660255859375,11.155855892822265,11.0988575859375,11.204991892822266Q11.1316885859375,11.254126892822265,11.1543035859375,11.308723892822266Q11.1769175859375,11.363319892822265,11.1884465859375,11.421279892822266Q11.1999755859375,11.479239092822265,11.1999755859375,11.538333892822266Z" fill="#FFFFFF" fill-opacity="1"/></g><g style="mix-blend-mode:passthrough" transform="matrix(-1,-2.904281188875757e-7,2.904281188875757e-7,-1,21.19994927295899,13.076670864175501)"><path d="M20.5999755859375,7.138333892822265L10.5999755859375,7.138333892822265L10.5999755859375,5.938333892822266L20.5999755859375,5.938333892822266L20.5999755859375,7.138333892822265ZM21.1999755859375,6.538333892822266Q21.1999755859375,6.597428692822266,21.1884755859375,6.655387892822266Q21.176875585937502,6.713347892822266,21.154275585937498,6.767943892822266Q21.1316755859375,6.822540892822266,21.0988755859375,6.871675892822266Q21.0660755859375,6.9208118928222655,21.024275585937502,6.962597892822266Q20.9824755859375,7.004383892822266,20.9332755859375,7.037215892822266Q20.8841755859375,7.0700468928222655,20.829575585937498,7.092661892822266Q20.7749755859375,7.1152758928222655,20.7170755859375,7.126804892822266Q20.6590755859375,7.138333892822265,20.5999755859375,7.138333892822265Q20.540885585937502,7.138333892822265,20.4829255859375,7.126804892822266Q20.4249655859375,7.1152758928222655,20.3703655859375,7.092661892822266Q20.3157655859375,7.0700468928222655,20.2666355859375,7.037215892822266Q20.2174955859375,7.004383892822266,20.1757055859375,6.962597892822266Q20.1339255859375,6.9208118928222655,20.1010955859375,6.871675892822266Q20.0682555859375,6.822540892822266,20.0456455859375,6.767943892822266Q20.0230355859375,6.713347892822266,20.0115055859375,6.655387892822266Q19.9999755859375,6.597428692822266,19.9999755859375,6.538333892822266Q19.9999755859375,6.479239092822265,20.0115055859375,6.421279892822265Q20.0230355859375,6.363319892822266,20.0456455859375,6.3087238928222655Q20.0682555859375,6.254126892822265,20.1010955859375,6.204991892822266Q20.1339255859375,6.155855892822266,20.1757155859375,6.114069892822266Q20.2174955859375,6.0722838928222655,20.2666355859375,6.039451892822266Q20.3157655859375,6.006620892822266,20.3703655859375,5.984005892822266Q20.4249655859375,5.961391892822266,20.4829255859375,5.949862892822265Q20.540885585937502,5.938333892822266,20.5999755859375,5.938333892822266Q20.6590755859375,5.938333892822266,20.7170755859375,5.949862892822265Q20.7749755859375,5.961391892822266,20.829575585937498,5.984005892822266Q20.8841755859375,6.006620892822266,20.9332755859375,6.039451892822266Q20.9824755859375,6.0722838928222655,21.024275585937502,6.114069892822266Q21.0660755859375,6.155855892822266,21.0988755859375,6.204991892822266Q21.1316755859375,6.254126892822265,21.154275585937498,6.3087238928222655Q21.176875585937502,6.363319892822266,21.1884755859375,6.421279892822265Q21.1999755859375,6.479239092822265,21.1999755859375,6.538333892822266ZM11.1999755859375,6.538333892822266Q11.1999755859375,6.597428692822266,11.1884465859375,6.655387892822266Q11.1769175859375,6.713347892822266,11.1543035859375,6.767943892822266Q11.1316885859375,6.822540892822266,11.0988575859375,6.871675892822266Q11.0660255859375,6.9208118928222655,11.0242395859375,6.962597892822266Q10.9824535859375,7.004383892822266,10.9333175859375,7.037215892822266Q10.8841825859375,7.0700468928222655,10.8295855859375,7.092661892822266Q10.774989585937501,7.1152758928222655,10.7170295859375,7.126804892822266Q10.6590703859375,7.138333892822265,10.5999755859375,7.138333892822265Q10.5408807859375,7.138333892822265,10.4829215859375,7.126804892822266Q10.424961585937499,7.1152758928222655,10.3703655859375,7.092661892822266Q10.3157685859375,7.0700468928222655,10.2666335859375,7.037215892822266Q10.2174975859375,7.004383892822266,10.1757115859375,6.962597892822266Q10.1339255859375,6.9208118928222655,10.1010935859375,6.871675892822266Q10.0682625859375,6.822540892822266,10.0456475859375,6.767943892822266Q10.0230335859375,6.713347892822266,10.0115045859375,6.655387892822266Q9.9999755859375,6.597428692822266,9.9999755859375,6.538333892822266Q9.9999755859375,6.479239092822265,10.0115045859375,6.421279892822265Q10.0230335859375,6.363319892822266,10.0456475859375,6.3087238928222655Q10.0682625859375,6.254126892822265,10.1010935859375,6.204991892822266Q10.1339255859375,6.155855892822266,10.1757115859375,6.114069892822266Q10.2174975859375,6.0722838928222655,10.2666335859375,6.039451892822266Q10.3157685859375,6.006620892822266,10.3703655859375,5.984005892822266Q10.424961585937499,5.961391892822266,10.4829215859375,5.949862892822265Q10.5408807859375,5.938333892822266,10.5999755859375,5.938333892822266Q10.6590703859375,5.938333892822266,10.7170295859375,5.949862892822265Q10.774989585937501,5.961391892822266,10.8295855859375,5.984005892822266Q10.8841825859375,6.006620892822266,10.9333175859375,6.039451892822266Q10.9824535859375,6.0722838928222655,11.0242395859375,6.114069892822266Q11.0660255859375,6.155855892822266,11.0988575859375,6.204991892822266Q11.1316885859375,6.254126892822265,11.1543035859375,6.3087238928222655Q11.1769175859375,6.363319892822266,11.1884465859375,6.421279892822265Q11.1999755859375,6.479239092822265,11.1999755859375,6.538333892822266Z" fill="#FFFFFF" fill-opacity="1"/></g></g></svg>