<svg xmlns="http://www.w3.org/2000/svg" xmlns:xlink="http://www.w3.org/1999/xlink" fill="none" version="1.1" width="15.113200187683105" height="15.113200187683105" viewBox="0 0 15.113200187683105 15.113200187683105"><g style="mix-blend-mode:passthrough"><path d="M1.56796,6.87934C1.56796,6.87934,5.31137,6.87934,5.31137,6.87934C5.83129,6.87934,6.2226,6.74799,6.48529,6.48529C6.74799,6.21712,6.87934,5.81214,6.87934,5.27033C6.87934,5.27033,6.87934,1.6008,6.87934,1.6008C6.87934,1.05899,6.74799,0.656739,6.48529,0.394043C6.2226,0.131348,5.83129,0,5.31137,0C5.31137,0,1.56796,0,1.56796,0C1.04805,0,0.656739,0.131348,0.394043,0.394043C0.131348,0.656739,0,1.05899,0,1.6008C0,1.6008,0,5.27033,0,5.27033C0,5.81214,0.131348,6.21712,0.394043,6.48529C0.656739,6.74799,1.04805,6.87934,1.56796,6.87934C1.56796,6.87934,1.56796,6.87934,1.56796,6.87934ZM1.58438,5.72183C1.44209,5.72183,1.33537,5.68352,1.26422,5.6069C1.19307,5.53029,1.1575,5.41809,1.1575,5.27033C1.1575,5.27033,1.1575,1.6008,1.1575,1.6008C1.1575,1.45303,1.19307,1.34358,1.26422,1.27243C1.33537,1.19581,1.44209,1.1575,1.58438,1.1575C1.58438,1.1575,5.28675,1.1575,5.28675,1.1575C5.42904,1.1575,5.53576,1.19581,5.6069,1.27243C5.68352,1.34358,5.72183,1.45303,5.72183,1.6008C5.72183,1.6008,5.72183,5.27033,5.72183,5.27033C5.72183,5.41809,5.68352,5.53029,5.6069,5.6069C5.53576,5.68352,5.42904,5.72183,5.28675,5.72183C5.28675,5.72183,1.58438,5.72183,1.58438,5.72183C1.58438,5.72183,1.58438,5.72183,1.58438,5.72183ZM2.73367,4.30164C2.73367,4.30164,4.13745,4.30164,4.13745,4.30164C4.24691,4.30164,4.30164,4.2387,4.30164,4.11282C4.30164,4.11282,4.30164,2.75009,4.30164,2.75009C4.30164,2.62969,4.24691,2.56949,4.13745,2.56949C4.13745,2.56949,2.73367,2.56949,2.73367,2.56949C2.62422,2.56949,2.56949,2.62969,2.56949,2.75009C2.56949,2.75009,2.56949,4.11282,2.56949,4.11282C2.56949,4.2387,2.62422,4.30164,2.73367,4.30164C2.73367,4.30164,2.73367,4.30164,2.73367,4.30164ZM9.81003,6.87934C9.81003,6.87934,13.5452,6.87934,13.5452,6.87934C14.0651,6.87934,14.4565,6.74799,14.7192,6.48529C14.9818,6.21712,15.1132,5.81214,15.1132,5.27033C15.1132,5.27033,15.1132,1.6008,15.1132,1.6008C15.1132,1.05899,14.9818,0.656739,14.7192,0.394043C14.4565,0.131348,14.0651,0,13.5452,0C13.5452,0,9.81003,0,9.81003,0C9.28464,0,8.8906,0.131348,8.6279,0.394043C8.36521,0.656739,8.23386,1.05899,8.23386,1.6008C8.23386,1.6008,8.23386,5.27033,8.23386,5.27033C8.23386,5.81214,8.36521,6.21712,8.6279,6.48529C8.8906,6.74799,9.28464,6.87934,9.81003,6.87934C9.81003,6.87934,9.81003,6.87934,9.81003,6.87934ZM9.82645,5.72183C9.67868,5.72183,9.56923,5.68352,9.49808,5.6069C9.42693,5.53029,9.39136,5.41809,9.39136,5.27033C9.39136,5.27033,9.39136,1.6008,9.39136,1.6008C9.39136,1.45303,9.42693,1.34358,9.49808,1.27243C9.56923,1.19581,9.67868,1.1575,9.82645,1.1575C9.82645,1.1575,13.5288,1.1575,13.5288,1.1575C13.6766,1.1575,13.7833,1.19581,13.849,1.27243C13.9201,1.34358,13.9557,1.45303,13.9557,1.6008C13.9557,1.6008,13.9557,5.27033,13.9557,5.27033C13.9557,5.41809,13.9201,5.53029,13.849,5.6069C13.7833,5.68352,13.6766,5.72183,13.5288,5.72183C13.5288,5.72183,9.82645,5.72183,9.82645,5.72183C9.82645,5.72183,9.82645,5.72183,9.82645,5.72183ZM11.0168,4.30164C11.0168,4.30164,12.4206,4.30164,12.4206,4.30164C12.5355,4.30164,12.593,4.2387,12.593,4.11282C12.593,4.11282,12.593,2.75009,12.593,2.75009C12.593,2.62969,12.5355,2.56949,12.4206,2.56949C12.4206,2.56949,11.0168,2.56949,11.0168,2.56949C10.9128,2.56949,10.8608,2.62969,10.8608,2.75009C10.8608,2.75009,10.8608,4.11282,10.8608,4.11282C10.8608,4.2387,10.9128,4.30164,11.0168,4.30164C11.0168,4.30164,11.0168,4.30164,11.0168,4.30164ZM1.56796,15.1132C1.56796,15.1132,5.31137,15.1132,5.31137,15.1132C5.83129,15.1132,6.2226,14.9818,6.48529,14.7192C6.74799,14.4565,6.87934,14.0542,6.87934,13.5124C6.87934,13.5124,6.87934,9.83466,6.87934,9.83466C6.87934,9.29832,6.74799,8.89881,6.48529,8.63611C6.2226,8.36794,5.83129,8.23386,5.31137,8.23386C5.31137,8.23386,1.56796,8.23386,1.56796,8.23386C1.04805,8.23386,0.656739,8.36794,0.394043,8.63611C0.131348,8.89881,0,9.29832,0,9.83466C0,9.83466,0,13.5124,0,13.5124C0,14.0542,0.131348,14.4565,0.394043,14.7192C0.656739,14.9818,1.04805,15.1132,1.56796,15.1132C1.56796,15.1132,1.56796,15.1132,1.56796,15.1132ZM1.58438,13.9557C1.44209,13.9557,1.33537,13.9174,1.26422,13.8408C1.19307,13.7696,1.1575,13.6602,1.1575,13.5124C1.1575,13.5124,1.1575,9.84287,1.1575,9.84287C1.1575,9.68963,1.19307,9.57744,1.26422,9.50629C1.33537,9.42967,1.44209,9.39136,1.58438,9.39136C1.58438,9.39136,5.28675,9.39136,5.28675,9.39136C5.42904,9.39136,5.53576,9.42967,5.6069,9.50629C5.68352,9.57744,5.72183,9.68963,5.72183,9.84287C5.72183,9.84287,5.72183,13.5124,5.72183,13.5124C5.72183,13.6602,5.68352,13.7696,5.6069,13.8408C5.53576,13.9174,5.42904,13.9557,5.28675,13.9557C5.28675,13.9557,1.58438,13.9557,1.58438,13.9557C1.58438,13.9557,1.58438,13.9557,1.58438,13.9557ZM2.73367,12.5437C2.73367,12.5437,4.13745,12.5437,4.13745,12.5437C4.24691,12.5437,4.30164,12.478,4.30164,12.3467C4.30164,12.3467,4.30164,10.9922,4.30164,10.9922C4.30164,10.8718,4.24691,10.8116,4.13745,10.8116C4.13745,10.8116,2.73367,10.8116,2.73367,10.8116C2.62422,10.8116,2.56949,10.8718,2.56949,10.9922C2.56949,10.9922,2.56949,12.3467,2.56949,12.3467C2.56949,12.478,2.62422,12.5437,2.73367,12.5437C2.73367,12.5437,2.73367,12.5437,2.73367,12.5437ZM8.79209,10.3601C8.79209,10.3601,10.1959,10.3601,10.1959,10.3601C10.3053,10.3601,10.3601,10.2971,10.3601,10.1712C10.3601,10.1712,10.3601,8.80851,10.3601,8.80851C10.3601,8.6881,10.3053,8.6279,10.1959,8.6279C10.1959,8.6279,8.79209,8.6279,8.79209,8.6279C8.68263,8.6279,8.6279,8.6881,8.6279,8.80851C8.6279,8.80851,8.6279,10.1712,8.6279,10.1712C8.6279,10.2971,8.68263,10.3601,8.79209,10.3601C8.79209,10.3601,8.79209,10.3601,8.79209,10.3601ZM13.1512,10.3601C13.1512,10.3601,14.555,10.3601,14.555,10.3601C14.6644,10.3601,14.7192,10.2971,14.7192,10.1712C14.7192,10.1712,14.7192,8.80851,14.7192,8.80851C14.7192,8.6881,14.6644,8.6279,14.555,8.6279C14.555,8.6279,13.1512,8.6279,13.1512,8.6279C13.0417,8.6279,12.987,8.6881,12.987,8.80851C12.987,8.80851,12.987,10.1712,12.987,10.1712C12.987,10.2971,13.0417,10.3601,13.1512,10.3601C13.1512,10.3601,13.1512,10.3601,13.1512,10.3601ZM10.9922,12.5437C10.9922,12.5437,12.3959,12.5437,12.3959,12.5437C12.5054,12.5437,12.5601,12.478,12.5601,12.3467C12.5601,12.3467,12.5601,10.9922,12.5601,10.9922C12.5601,10.8718,12.5054,10.8116,12.3959,10.8116C12.3959,10.8116,10.9922,10.8116,10.9922,10.8116C10.8827,10.8116,10.828,10.8718,10.828,10.9922C10.828,10.9922,10.828,12.3467,10.828,12.3467C10.828,12.478,10.8827,12.5437,10.9922,12.5437C10.9922,12.5437,10.9922,12.5437,10.9922,12.5437ZM8.79209,14.7192C8.79209,14.7192,10.1959,14.7192,10.1959,14.7192C10.3053,14.7192,10.3601,14.6562,10.3601,14.5303C10.3601,14.5303,10.3601,13.1676,10.3601,13.1676C10.3601,13.0472,10.3053,12.987,10.1959,12.987C10.1959,12.987,8.79209,12.987,8.79209,12.987C8.68263,12.987,8.6279,13.0472,8.6279,13.1676C8.6279,13.1676,8.6279,14.5303,8.6279,14.5303C8.6279,14.6562,8.68263,14.7192,8.79209,14.7192C8.79209,14.7192,8.79209,14.7192,8.79209,14.7192ZM13.1512,14.7192C13.1512,14.7192,14.555,14.7192,14.555,14.7192C14.6644,14.7192,14.7192,14.6562,14.7192,14.5303C14.7192,14.5303,14.7192,13.1676,14.7192,13.1676C14.7192,13.0472,14.6644,12.987,14.555,12.987C14.555,12.987,13.1512,12.987,13.1512,12.987C13.0417,12.987,12.987,13.0472,12.987,13.1676C12.987,13.1676,12.987,14.5303,12.987,14.5303C12.987,14.6562,13.0417,14.7192,13.1512,14.7192C13.1512,14.7192,13.1512,14.7192,13.1512,14.7192Z" fill="#FFFFFF" fill-opacity="0.800000011920929"/></g></svg>