<svg xmlns="http://www.w3.org/2000/svg" xmlns:xlink="http://www.w3.org/1999/xlink" fill="none" version="1.1" width="17.015899658203125" height="17" viewBox="0 0 17.015899658203125 17"><g style="mix-blend-mode:passthrough"><path d="M7.70486,17C7.70486,17,9.31104,17,9.31104,17C9.61849,17,9.88089,16.9125,10.0982,16.7376C10.3209,16.568,10.4666,16.3347,10.5355,16.0379C10.5355,16.0379,10.8775,14.551,10.8775,14.551C10.8775,14.551,11.1319,14.4635,11.1319,14.4635C11.1319,14.4635,12.428,15.2587,12.428,15.2587C12.6824,15.423,12.9501,15.4866,13.2311,15.4495C13.512,15.4124,13.7611,15.2852,13.9785,15.0678C13.9785,15.0678,15.0917,13.9626,15.0917,13.9626C15.309,13.7452,15.4362,13.4961,15.4733,13.2152C15.5104,12.9342,15.4468,12.6665,15.2825,12.4121C15.2825,12.4121,14.4715,11.1239,14.4715,11.1239C14.4715,11.1239,14.5669,10.8854,14.5669,10.8854C14.5669,10.8854,16.0538,10.5355,16.0538,10.5355C16.3453,10.4666,16.5786,10.3209,16.7535,10.0982C16.9284,9.87558,17.0159,9.61319,17.0159,9.31104C17.0159,9.31104,17.0159,7.73667,17.0159,7.73667C17.0159,7.43452,16.9284,7.17212,16.7535,6.94949C16.5786,6.72685,16.3453,6.58107,16.0538,6.51216C16.0538,6.51216,14.5828,6.15435,14.5828,6.15435C14.5828,6.15435,14.4794,5.89991,14.4794,5.89991C14.4794,5.89991,15.2905,4.61179,15.2905,4.61179C15.4548,4.35734,15.5184,4.0923,15.4813,3.81665C15.4442,3.5357,15.317,3.28391,15.0996,3.06127C15.0996,3.06127,13.9864,1.94808,13.9864,1.94808C13.7744,1.73605,13.5279,1.61147,13.247,1.57437C12.966,1.53726,12.6983,1.59822,12.4439,1.75725C12.4439,1.75725,11.1478,2.55239,11.1478,2.55239C11.1478,2.55239,10.8775,2.44902,10.8775,2.44902C10.8775,2.44902,10.5355,0.962114,10.5355,0.962114C10.4666,0.670564,10.3209,0.437325,10.0982,0.262395C9.88089,0.0874649,9.61849,0,9.31104,0C9.31104,0,7.70486,0,7.70486,0C7.39741,0,7.13237,0.0874649,6.90973,0.262395C6.69239,0.437325,6.54927,0.670564,6.48036,0.962114C6.48036,0.962114,6.1305,2.44902,6.1305,2.44902C6.1305,2.44902,5.86015,2.55239,5.86015,2.55239C5.86015,2.55239,4.57203,1.75725,4.57203,1.75725C4.31229,1.59822,4.04194,1.53726,3.76099,1.57437C3.48534,1.61147,3.23885,1.73605,3.02152,1.94808C3.02152,1.94808,1.91628,3.06127,1.91628,3.06127C1.69364,3.28391,1.56377,3.5357,1.52666,3.81665C1.49486,4.0923,1.56112,4.35734,1.72544,4.61179C1.72544,4.61179,2.52853,5.89991,2.52853,5.89991C2.52853,5.89991,2.43312,6.15435,2.43312,6.15435C2.43312,6.15435,0.962114,6.51216,0.962114,6.51216C0.665263,6.58107,0.429373,6.72685,0.254443,6.94949C0.0848145,7.17212,0,7.43452,0,7.73667C0,7.73667,0,9.31104,0,9.31104C0,9.61319,0.0874649,9.87558,0.262395,10.0982C0.437325,10.3209,0.670564,10.4666,0.962114,10.5355C0.962114,10.5355,2.44902,10.8854,2.44902,10.8854C2.44902,10.8854,2.53648,11.1239,2.53648,11.1239C2.53648,11.1239,1.7334,12.4121,1.7334,12.4121C1.56907,12.6665,1.50281,12.9342,1.53461,13.2152C1.57172,13.4961,1.70159,13.7452,1.92423,13.9626C1.92423,13.9626,3.02947,15.0678,3.02947,15.0678C3.2468,15.2852,3.49595,15.4124,3.77689,15.4495C4.05784,15.4866,4.32819,15.423,4.58793,15.2587C4.58793,15.2587,5.87605,14.4635,5.87605,14.4635C5.87605,14.4635,6.1305,14.551,6.1305,14.551C6.1305,14.551,6.48036,16.0379,6.48036,16.0379C6.54927,16.3347,6.69239,16.568,6.90973,16.7376C7.13237,16.9125,7.39741,17,7.70486,17C7.70486,17,7.70486,17,7.70486,17ZM7.83209,15.7596C7.69956,15.7596,7.6227,15.6986,7.6015,15.5767C7.6015,15.5767,7.12442,13.6048,7.12442,13.6048C6.88057,13.5465,6.64733,13.4722,6.4247,13.3821C6.20736,13.2867,6.01388,13.186,5.84425,13.08C5.84425,13.08,4.11085,14.1455,4.11085,14.1455C4.01544,14.2144,3.91737,14.2011,3.81665,14.1057C3.81665,14.1057,2.87839,13.1674,2.87839,13.1674C2.79358,13.0879,2.78297,12.9899,2.84659,12.8732C2.84659,12.8732,3.91207,11.1558,3.91207,11.1558C3.82195,10.9861,3.72919,10.7926,3.63377,10.5753C3.53835,10.358,3.45884,10.1274,3.39523,9.88354C3.39523,9.88354,1.42329,9.41441,1.42329,9.41441C1.30137,9.3932,1.24041,9.31634,1.24041,9.18382C1.24041,9.18382,1.24041,7.85594,1.24041,7.85594C1.24041,7.72872,1.30137,7.65186,1.42329,7.62535C1.42329,7.62535,3.38728,7.14827,3.38728,7.14827C3.45089,6.88853,3.53305,6.64733,3.63377,6.4247C3.73979,6.20206,3.82725,6.01653,3.89616,5.8681C3.89616,5.8681,2.83863,4.15061,2.83863,4.15061C2.76972,4.03399,2.77767,3.93062,2.86249,3.84051C2.86249,3.84051,3.8087,2.91815,3.8087,2.91815C3.90412,2.83333,4.00483,2.82008,4.11085,2.87839C4.11085,2.87839,5.82834,3.92002,5.82834,3.92002C5.99797,3.8246,6.19676,3.72919,6.4247,3.63377C6.65794,3.53835,6.89383,3.45884,7.13237,3.39523C7.13237,3.39523,7.6015,1.42329,7.6015,1.42329C7.6227,1.30137,7.69956,1.24041,7.83209,1.24041C7.83209,1.24041,9.18382,1.24041,9.18382,1.24041C9.31634,1.24041,9.39055,1.30137,9.40646,1.42329C9.40646,1.42329,9.89149,3.41113,9.89149,3.41113C10.1406,3.47474,10.3712,3.55426,10.5833,3.64967C10.8006,3.73979,10.9967,3.83255,11.1717,3.92797C11.1717,3.92797,12.8971,2.87839,12.8971,2.87839C13.0084,2.82008,13.1118,2.83333,13.2072,2.91815C13.2072,2.91815,14.1455,3.84051,14.1455,3.84051C14.2356,3.93062,14.2435,4.03399,14.1693,4.15061C14.1693,4.15061,13.1118,5.8681,13.1118,5.8681C13.186,6.01653,13.2735,6.20206,13.3742,6.4247C13.4749,6.64733,13.5571,6.88853,13.6207,7.14827C13.6207,7.14827,15.5926,7.62535,15.5926,7.62535C15.7145,7.65186,15.7755,7.72872,15.7755,7.85594C15.7755,7.85594,15.7755,9.18382,15.7755,9.18382C15.7755,9.31634,15.7145,9.3932,15.5926,9.41441C15.5926,9.41441,13.6127,9.88354,13.6127,9.88354C13.5491,10.1274,13.4696,10.358,13.3742,10.5753C13.2841,10.7926,13.1913,10.9861,13.0959,11.1558C13.0959,11.1558,14.1614,12.8732,14.1614,12.8732C14.2303,12.9899,14.2197,13.0879,14.1296,13.1674C14.1296,13.1674,13.1993,14.1057,13.1993,14.1057C13.0985,14.2011,12.9978,14.2144,12.8971,14.1455C12.8971,14.1455,11.1637,13.08,11.1637,13.08C10.9941,13.186,10.8006,13.2867,10.5833,13.3821C10.3659,13.4722,10.1353,13.5465,9.89149,13.6048C9.89149,13.6048,9.40646,15.5767,9.40646,15.5767C9.39055,15.6986,9.31634,15.7596,9.18382,15.7596C9.18382,15.7596,7.83209,15.7596,7.83209,15.7596C7.83209,15.7596,7.83209,15.7596,7.83209,15.7596ZM8.50795,11.5374C9.06455,11.5374,9.57078,11.4022,10.0267,11.1319C10.4878,10.8563,10.8536,10.4878,11.1239,10.0267C11.3996,9.56548,11.5374,9.05659,11.5374,8.5C11.5374,7.94871,11.3996,7.44512,11.1239,6.98924C10.8536,6.52806,10.4878,6.1623,10.0267,5.89196C9.57078,5.61631,9.06455,5.47848,8.50795,5.47848C7.95136,5.47848,7.44247,5.61631,6.98129,5.89196C6.52541,6.1623,6.15965,6.52806,5.884,6.98924C5.60836,7.44512,5.47053,7.94871,5.47053,8.5C5.47053,9.05659,5.60836,9.56548,5.884,10.0267C6.15965,10.4825,6.52541,10.8483,6.98129,11.1239C7.44247,11.3996,7.95136,11.5374,8.50795,11.5374C8.50795,11.5374,8.50795,11.5374,8.50795,11.5374ZM8.50795,10.305C8.1793,10.305,7.87714,10.2254,7.6015,10.0664C7.33115,9.90209,7.11381,9.68475,6.94949,9.41441C6.79046,9.13876,6.71094,8.83396,6.71094,8.5C6.71094,8.17134,6.79046,7.87184,6.94949,7.6015C7.11381,7.33115,7.33115,7.11646,7.6015,6.95744C7.87714,6.79311,8.1793,6.71094,8.50795,6.71094C8.83131,6.71094,9.12816,6.79311,9.3985,6.95744C9.66885,7.11646,9.88354,7.33115,10.0426,7.6015C10.2069,7.87184,10.2891,8.17134,10.2891,8.5C10.2891,8.82866,10.2069,9.13081,10.0426,9.40646C9.88354,9.6768,9.66885,9.89414,9.3985,10.0585C9.12816,10.2228,8.83131,10.305,8.50795,10.305C8.50795,10.305,8.50795,10.305,8.50795,10.305Z" fill="#FFFFFF" fill-opacity="0.800000011920929"/></g></svg>