<svg xmlns="http://www.w3.org/2000/svg" xmlns:xlink="http://www.w3.org/1999/xlink" fill="none" version="1.1" width="13.55029296875" height="12.492430686950684" viewBox="0 0 13.55029296875 12.492430686950684"><g style="mix-blend-mode:passthrough"><g style="mix-blend-mode:passthrough" transform="matrix(0.7079049944877625,-0.7063077092170715,0.7063077092170715,0.7079049944877625,-4.446714947488857,5.482539479009375)"><path d="M5.119524628387451,8.117444855790527L15.183938628387452,8.117514610290527C15.578338628387451,8.117479733090528,15.898138628387452,8.437303610290527,15.898138628387452,8.831800610290527C15.898238628387451,9.226294610290527,15.578338628387451,9.546084610290528,15.183838628387452,9.546014610290527L5.119524628387451,9.546124610290526C4.724993628387451,9.546124610290526,4.405238628387451,9.226334610290527,4.405238628387451,8.831800610290527C4.405238628387451,8.437303610290527,4.724993628387451,8.117514610290527,5.119524628387451,8.117444855790527Z" fill-rule="evenodd" fill="#FFFFFF" fill-opacity="1"/></g><g style="mix-blend-mode:passthrough"><path d="M1.57143,1.6352879679870604L4.42857,1.6352879679870604C4.8231,1.6352879679870604,5.14286,1.3154679679870604,5.14286,0.9210039679870605C5.14286,0.5265419679870605,4.8231,0.20671796798706055,4.42857,0.20671796798706055L1.57143,0.20671796798706055Q0.92048,0.20671796798706055,0.46024,0.6669579679870605Q0,1.1272679679870605,0,1.7781479679870607L0,10.92101796798706Q0,11.57191796798706,0.46024,12.03221796798706Q0.92048,12.49241796798706,1.57143,12.49241796798706L11.8571,12.49241796798706Q12.5081,12.49241796798706,12.9683,12.03221796798706Q13.4286,11.57191796798706,13.4286,10.92101796798706L13.4286,8.635287967987061C13.4286,8.24082796798706,13.1088,7.921007967987061,12.7143,7.921007967987061C12.3198,7.921007967987061,12,8.24082796798706,12,8.635287967987061L12,10.92101796798706Q12,10.980117967987061,11.9581,11.022017967987061Q11.9163,11.063817967987061,11.8571,11.063817967987061L1.57143,11.063817967987061Q1.51228,11.063817967987061,1.47042,11.022017967987061Q1.42857,10.980117967987061,1.42857,10.92101796798706L1.42857,1.7781479679870607Q1.42857,1.7189979679870606,1.47042,1.6771379679870606Q1.51228,1.6352879679870604,1.57143,1.6352879679870604Z" fill-rule="evenodd" fill="#FFFFFF" fill-opacity="1"/></g><g style="mix-blend-mode:passthrough"><path d="M8.14296212838745,0.20671796798706055L12.714396128387452,0.20671796798706055C13.108926128387452,0.20671796798706055,13.428676128387451,0.5265419679870605,13.428676128387451,0.9210039679870605C13.428676128387451,1.3154679679870604,13.108926128387452,1.6352879679870604,12.714396128387452,1.6352879679870604L8.14296212838745,1.6352879679870604C7.748430128387451,1.6352879679870604,7.428676128387451,1.3154679679870604,7.428676128387451,0.9210039679870605C7.428676128387451,0.5265419679870605,7.748430128387451,0.20671796798706055,8.14296212838745,0.20671796798706055Z" fill-rule="evenodd" fill="#FFFFFF" fill-opacity="1"/></g><g style="mix-blend-mode:passthrough" transform="matrix(0,1,-1,0,13.952533721923828,-12.967670440673828)"><path d="M14.174388081298828,0.492431640625L18.74582208129883,0.492431640625C19.140282081298828,0.492431640625,19.460102081298828,0.812185640625,19.460102081298828,1.206717640625C19.460102081298828,1.601251640625,19.140282081298828,1.921001640625,18.74582208129883,1.921001640625L14.174388081298828,1.921001640625C13.779926081298829,1.921001640625,13.460102081298828,1.601251640625,13.460102081298828,1.206717640625C13.460102081298828,0.812185640625,13.779926081298829,0.492431640625,14.174388081298828,0.492431640625Z" fill-rule="evenodd" fill="#FFFFFF" fill-opacity="1"/></g></g></svg>