<svg xmlns="http://www.w3.org/2000/svg" xmlns:xlink="http://www.w3.org/1999/xlink" fill="none" version="1.1" width="15.9091796875" height="16.272705078125" viewBox="0 0 15.9091796875 16.272705078125"><g><path d="M11.3936,8.30267Q12.8179,6.87811,12.8179,4.86365Q12.8179,2.84918,11.3936,1.42459Q9.96875,0,7.95459,0Q5.93994,0,4.51514,1.42459Q3.09082,2.84912,3.09082,4.86365Q3.09082,6.87817,4.51514,8.3027Q4.53418,8.32156,4.55322,8.34021Q3.35645,8.88409,2.34131,9.84821Q0,12.0727,0,15.2273Q0,15.6603,0.306152,15.9665Q0.612305,16.2727,1.04541,16.2727Q1.47852,16.2727,1.78467,15.9665Q2.09082,15.6603,2.09082,15.2273Q2.09082,12.9604,3.79541,11.3507Q5.51514,9.72726,7.95459,9.72726Q10.394,9.72726,12.1138,11.3507Q13.8184,12.9604,13.8184,15.2273Q13.8184,15.6603,14.1245,15.9665Q14.4307,16.2727,14.8638,16.2727Q15.2969,16.2727,15.603,15.9665Q15.9092,15.6603,15.9092,15.2273Q15.9092,12.0727,13.5679,9.84821Q12.5527,8.88394,11.356,8.34006Q11.3745,8.3215,11.3936,8.30267ZM9.91504,6.82425Q9.10303,7.63635,7.95459,7.63635Q6.80615,7.63635,5.99365,6.82422Q5.18164,6.01215,5.18164,4.86365Q5.18164,3.71515,5.99365,2.90305Q6.80615,2.09091,7.95459,2.09091Q9.10303,2.09091,9.91504,2.90302Q10.7271,3.71518,10.7271,4.86365Q10.7271,6.01212,9.91504,6.82425Z" fill-rule="evenodd" fill="#FFFFFF" fill-opacity="0.800000011920929"/></g></svg>